<?xml version="1.0" standalone="no"?>
<!DOCTYPE svg PUBLIC "-//W3C//DTD SVG 20010904//EN"
 "http://www.w3.org/TR/2001/REC-SVG-20010904/DTD/svg10.dtd">
<svg version="1.0" xmlns="http://www.w3.org/2000/svg"
 width="130.000000pt" height="131.000000pt" viewBox="0 0 130.000000 131.000000"
 preserveAspectRatio="xMidYMid meet">

<g transform="translate(0.000000,131.000000) scale(0.100000,-0.100000)"
fill="#000000" stroke="none">
<path d="M170 1248 c-46 -13 -98 -63 -110 -108 -13 -47 -13 -914 0 -959 13
-46 65 -99 110 -111 47 -13 913 -13 960 0 46 13 95 65 109 115 15 55 15 896 0
950 -14 50 -64 100 -114 114 -51 14 -905 13 -955 -1z m690 -163 c9 -11 33 -15
86 -15 72 0 74 -1 74 -25 0 -24 -2 -25 -65 -25 l-65 0 0 -60 0 -60 65 0 c63 0
65 -1 65 -25 0 -25 -1 -25 -80 -25 -69 0 -81 -3 -90 -20 -9 -17 -21 -20 -70
-20 -55 0 -75 10 -50 25 21 13 50 85 50 123 0 22 -11 59 -25 86 -14 26 -25 49
-25 52 0 2 26 4 59 4 40 0 63 -5 71 -15z m-178 -23 c34 -20 48 -52 48 -112 0
-41 -5 -56 -29 -82 -28 -32 -33 -33 -115 -37 l-86 -3 0 -104 c0 -91 2 -105 18
-110 89 -29 182 -75 215 -106 38 -36 39 -40 35 -87 -9 -93 -78 -159 -154 -149
-22 3 -79 23 -127 44 -97 42 -147 87 -147 132 0 20 -7 30 -28 40 -47 20 -52
46 -52 248 l0 186 29 29 c16 16 39 29 50 29 13 0 23 8 27 24 10 42 48 68 111
76 77 9 171 1 205 -18z m184 -587 c23 -35 13 -107 -24 -182 -48 -93 -119 -146
-163 -122 -27 14 -19 33 17 37 53 6 112 83 135 175 9 38 9 53 -1 72 -23 44 9
61 36 20z"/>
</g>
</svg>
